<?xml version="1.0" encoding="UTF-8"?>
<svg id="Calque_2" data-name="Calque 2" xmlns="http://www.w3.org/2000/svg" viewBox="0 0 215.41 80.97">
  <defs>
    <style>
      .cls-1 {
        fill: blue;
      }
    </style>
  </defs>
  <g id="Calque_1-2" data-name="Calque 1">
    <path class="cls-1" d="m184.9,8.83c7.67,2.14,5.45,13.82,5.59,16.24,0,.14.12.24.26.23l1.17-.11c.16-.01.28-.15.29-.31.01-1.37-1.45-13.01,1.62-15.17.09-.06.18-.16.27-.24-.53,1.73,1.43,2.48,3.39,1.16,1.97-1.32,2.92-1.9,4.42-1.31.93.36,1.7,1.16,2.25,1.91.15.2.45.02.36-.2-.8-1.92-2.42-4.74-5.1-5.17-2.4-.39-4.74.6-6.48,2.22-.91.84-1.7,1.92-2.26,3.02-1-1.41-3.06-3.15-5.77-2.46-.1.03-.12.18-.02.21"/>
    <path class="cls-1" d="m62.49,28.14c5.21,2.82,4.04,13.97,4.27,15.81l1.18-.11s.05-.02.05-.04c.12-.81-1.35-13.33,1.06-15.02.07-.05.13-.12.2-.18-.39,1.27,1.05,1.82,2.49.85,1.45-.97,2.14-1.39,3.25-.96.68.27,1.25.86,1.66,1.4.11.14.33.02.26-.15-.59-1.41-1.78-3.49-3.74-3.8-1.76-.28-3.48.44-4.76,1.63-.66.62-1.24,1.41-1.66,2.22-.73-1.04-2.24-2.31-4.24-1.81-.07.02-.08.12-.02.15"/>
    <path class="cls-1" d="m139.24,24.41c-.15-.92-.6-2.19-1.76-3.68-.51-.57-1.02-1.08-1.71-1.47.65-.2,1.39-.57,2.41-1.16,2.05-1.18,3.06-2.64,3.76-4.3.7-1.66,1.38-4.36,0-5.99-1.38-1.64-2.7-.91-3.28-.41-.83.71-.64,1.9.06,2.39.98.7,1.97-.16,2.01-.66.86,1.07.26,2.31-.7,3.04-.96.73-1.79,1.06-3.9,1.61-2.1.55-3.38.73-4.16,1.58-.58.63-.89,2.04.22,2.72h0c-2.36-.61-10.43-2.32-12.88.88-.03.04-.06.09-.09.14-.12.06-.19.1-.19.1.04,0,.08-.01.13-.02-.92,1.42,1.49-.09,5.07-.53,3.7-.2,6.12.29,7.83,1.1-1.61.31-1.72,2.08-.82,2.93,1.28,1.21,2.69.35,4.76.33,1.24-.01,2.12.34,2.89,1.53.12.18.4.08.36-.13"/>
    <path class="cls-1" d="m172.17,8.35c-.22,1.93-1.96,3.31-3.89,3.09-1.93-.22-3.31-1.96-3.08-3.89.22-1.93,1.96-3.31,3.89-3.09,1.93.22,3.31,1.96,3.09,3.89"/>
    <path class="cls-1" d="m156.46,8.79c-.22,1.93-1.96,3.31-3.89,3.09-1.93-.22-3.31-1.96-3.08-3.89.22-1.93,1.96-3.31,3.89-3.09,1.93.22,3.31,1.96,3.09,3.89"/>
    <path class="cls-1" d="m180.17,7.99c-.22,1.93-1.96,3.31-3.89,3.09-1.93-.22-3.31-1.96-3.08-3.89.22-1.93,1.96-3.31,3.89-3.09,1.93.22,3.31,1.96,3.09,3.89"/>
    <path class="cls-1" d="m5.28,39.77c-1.72-.22-2.94-1.8-2.72-3.52.22-1.72,1.8-2.94,3.52-2.72,1.72.22,2.94,1.8,2.72,3.52-.22,1.72-1.8,2.94-3.52,2.72"/>
    <path class="cls-1" d="m5.84,47.78c-1.72-.22-2.94-1.8-2.72-3.52.22-1.72,1.8-2.94,3.52-2.72,1.72.22,2.94,1.8,2.72,3.52-.22,1.72-1.8,2.94-3.52,2.72"/>
    <path class="cls-1" d="m28.64,33.38c-.7.05-1.33-.15-1.81-.58-.52-.46-.84-1.18-.87-1.93-.01-.3,0-.6.02-.9.03-.59.06-1.15-.12-1.62-.05-.14-.18-.33-.28-.48l-.2-.3.08-.24c.15-.44.68-1.42.81-1.66l.31-.55.46.43c.47.43.71,1.41.77,2.12v.03c0,.17,0,.38,0,.62-.01.47-.03,1.05.04,1.52.03.26.23,1.1,1.24,1.03.06,0,.12-.01.18-.02.49-.08,1.06-.49,1.23-1.12.02-.11.02-.35-.08-.79-.12-.48-.27-.89-.54-1.4-.19-.37-.28-.57-.31-.73v-.07s0-.07,0-.07c.07-.57.43-1.47.57-1.74l.28-.56.48.4c.2.16.37.38.51.65.34.64.68,1.55.83,2.22.02.11.05.21.07.32.09.43.17.8.39,1.11.27.31.82.64,1.49.59.12,0,.55-.33.67-.36-.04-.06-.09-.12-.14-.19-.16-.22-.33-.43-.5-.63-.4-.5-.82-1.02-1.15-1.63-.16-.3-.25-.53-.26-.72-.04-.42.12-.79.27-1.14.05-.11.43-.94.57-.95.11.47.82,1.75,1.16,2.21.19.26.38.49.58.74l.2.25c.35.43.54.78.64,1.16.13.47.14,1.01.04,1.49-.06.29-.16.57-.31.89l-.02.03c-.36.63-.87,1.28-2.01,1.36-.2.01-.42,0-.65-.01-.69-.07-1.32-.39-1.77-.86-.56,1.11-1.38,1.79-2.4,2.01-.15.03-.3.05-.45.06"/>
    <path class="cls-1" d="m64.92,6.39l2.11-2.81,1.99,4.45-1.06,1.64.97,8.31c.18,1.7-.18,3.42-1.1,4.87-.37.57-.8,1.05-1.27,1.24,0,0,0-13.13-1.64-17.7"/>
    <path class="cls-1" d="m101.93,16.53l2.43-3.78-4.59-10.27-4.86,6.49c3.78,10.54,3.78,40.8,3.78,40.8,1.1-.42,2.09-1.53,2.93-2.85,2.12-3.32,2.96-7.3,2.53-11.22l-2.23-19.16Z"/>
    <path class="cls-1" d="m43.3,2.48l-4.86,5.9c2.71,6.87,3.48,22.95,3.7,31.52-1.04.96-2.48,1.73-4.51,1.96-6.37.71-5.35-5.22-5.35-5.22l-1.77.91s-3.94,5.5-10.65,5.26c-5.28-.19-3.45-8.76-2.43-12.4,4.54-3.72,3.26-10.17,3.26-10.17l-1.68-2.8c-1-1.68-2.19-3.26-3.54-4.72l-4.47-4.83-.8-4.19L1.06,0,0,7.93c9.44,6.13,16.39,16.89,16.39,16.89-5.98,2.33-9.74-1.69-9.74-1.69l3.77-4.96-2.21-2.63s-5.82,6.01-4.93,12.07c.89,6.06,8.73,5.1,8.73,5.1,1.23-.21,2.29-.54,3.21-.95l-2.77,8.14s-1.99,7.19,5.05,9.56c7.04,2.37,12.07-5.46,12.07-5.46,0,0-.33,5.22,6.71,4.74,7.04-.47,11.4-5.85,11.4-16.03l-2.23-17.44,2.43-3.44-4.59-9.34Z"/>
    <path class="cls-1" d="m87.61,32.74c-1.05-.09-2.1.05-3.13.33l-1.74-16.54,2.43-3.78-4.59-10.27-4.86,6.48c1.58,4.39,3.21,22.36,3.59,26.77-.13.09-.25.19-.38.28-3.42,2.61-7.23,4.66-11.31,6.03l-.59.2s-7.16-1.02-7.85-11.24c-.69-10.21-1.63-28.2-1.63-28.2l-7.02,5.31,2.41,26.47s-.65,12.08,12.98,14.76v-.05c9.06.07,17.14-7.91,19.04-9.27.88-.63,2.08-.48,2.79.33.4.46.5,1.11.25,1.66l-.11.24c-.65.44-1.52.38-2.12-.14l-1.16-1.01-4.32,3.51s.89,5.15,7.02,4.86c7.31-.34,6.76-9.46,6.76-9.46,0,0-.27-6.75-6.48-7.3"/>
    <path class="cls-1" d="m10.73,11.48s6.07-6.66,10.05-7.5l-1.05,5.52s-4.62,1.88-6.24,4.22l-2.75-2.24Z"/>
    <path class="cls-1" d="m88.26,24.48c.32-.84.25-1.49.88-1.64.73-.17,1.19.58,1.05,1.14.38-1.05.46-2.03-.51-3.29.35-.1.59-.34.74-.64,1.45,2.06,2.47,4.57,1.79,7.3-.22.89-.69,1.91.42,2.54-1.41.04-3.01-2.09-2.92-3.43-.46.12-.99.1-1.61-.09-1.39-.41-1.77-1.67-1.77-1.67.53.65,1.59.61,1.92-.23"/>
    <path class="cls-1" d="m91.97,16.39c-.32.84-.25,1.49-.89,1.64-.73.17-1.19-.58-1.05-1.14-.38,1.05-.46,2.03.51,3.29-.35.1-.59.34-.74.64-1.45-2.06-2.47-4.57-1.79-7.3.22-.89.69-1.91-.42-2.54,1.41-.04,3.02,2.09,2.92,3.43.46-.12.99-.1,1.61.09,1.39.41,1.77,1.67,1.77,1.67-.53-.65-1.59-.61-1.92.23"/>
    <path class="cls-1" d="m31.38,8.61l-1.03,2.88,1.24.82s-2.37,2.16-3.4-.93c-1.03-3.09,2.27-8.24,2.27-8.24l-.41-.41-2.88,5.98s-2.27,6.18,1.03,7.62c3.3,1.44,5.36-4.12,5.36-4.12,0,0,.21-2.68-2.16-3.61"/>
    <path class="cls-1" d="m125.12,28.9l-1.62,4.32s7.02.81,8.65,6.21h.7s1.19-5.94,6.32-6.21l1.08-4.86s-6.48.27-7.57,7.03c0,0-1.08-5.94-7.56-6.49"/>
    <path class="cls-1" d="m197.74,21.76s-6.11-5.5-10.43,6.93c0,0-2.43,10,4.86,10.54,0,0,6.48,0,9.46-1.35,0,0-1.08-4.05-3.56-6.62,0,0-7.24.95-8.06-2.57,0,0,3.24-3.24,8.11,1.35,0,0,4.05,4.32,4.59,8.11,0,0-22.43,11.73-23.51,12h15.02s11.73-4.98,10.92-14.44c0,0,.81-8.65-7.4-13.95"/>
    <path class="cls-1" d="m184.34,31.79s.81-8.65-7.41-13.95c0,0-6.1-5.5-10.43,6.93,0,0-2.43,10,4.86,10.54,0,0,6.48,0,9.46-1.35,0,0-1.08-4.05-3.56-6.62,0,0-7.24.95-8.05-2.57,0,0,3.24-3.24,8.1,1.35,0,0,4.05,4.32,4.59,8.11,0,0-3.81,3.46-10.07,5.07-3.17,1.13-7.34,2.09-11.73,1.62.73-.71,1.38-1.46,1.9-2.24.89-1.33,1.71-2.81,2.42-4.46,0,0,2.16-12.43-8.92-15.4,0,0-9.19.81-7.84,16.75l1.57,5.04.39-.13c1.6-.55,3.12-1.33,4.5-2.32l.57-.4s-5.13-5.15-4.86-7.85c0,0,3.78-5.94,8.38-1.62l3.24,4.32s-4.97,9.15-24.42,11.31h-1.62c-6.93.75-11.09-.89-13.82-2.63-6.45-4.12-6.23-9.76-6.34-11.61-.4-6.56,6.35-10.9,6.35-10.9l-.68-1s-15.11,6.91-10.01,20.56c4.4,11.77,16.14,12.18,25.85,11.61,4.4-.26,10.23-1.62,15.34-3.89,2.57.76,11.51,2.9,22.06-.47.15-.05,10.97-2.74,10.18-13.76"/>
    <path class="cls-1" d="m212.98,16.53l2.43-3.78-4.59-10.27-4.86,6.49c3.78,10.54,3.78,40.8,3.78,40.8,1.1-.42,2.09-1.53,2.94-2.85,2.12-3.32,2.96-7.3,2.53-11.22l-2.23-19.16Z"/>
    <path class="cls-1" d="m119.9,14.39c.28,2.88-.51,5.43-2.3,7.43-.3-.31-.62-.62-.9-.95,1.5-1.72,2.14-3.85,1.9-6.36,0-.01,0-.02,0-.03-.21-2.12-.76-3.38-1.51-4.28.76,1.36-.55,2.89-2.16,2.52-1.13-.26-1.58-1.32-2.19-2-.62-.69-2.12-1.21-3.27.36-.11-1.64,1.55-3.46,3.86-3.76.59-.08,2.55-.39,4.52,1.32-.39-1.81.68-3.77,2.14-4.98,1.76-1.45,4.45-1.64,4.45-1.64-1.03.4-1.89,1.64-2.21,3.35-.32,1.71.98,3.08-.05,4.41-.94,1.22-2.83.8-2.85-.41-.11,1.6.37,3.09.55,4.99,0,.01,0,.02,0,.03"/>
    <path class="cls-1" d="m4.78,74.84c-.7,0-1.31-.12-1.83-.37-.53-.25-.94-.6-1.24-1.04-.29-.44-.44-.96-.44-1.53,0-.48.1-.97.29-1.45.2-.48.54-.95,1.02-1.4.48-.45,1.15-.87,2-1.25.85-.38,1.93-.69,3.23-.95l.18,1.13c-1.18.15-2.14.37-2.89.64-.75.28-1.33.6-1.74.95-.41.35-.7.72-.86,1.09-.16.37-.24.71-.24,1.03,0,.63.24,1.13.71,1.48.47.35,1.14.53,1.98.53.44,0,.91-.05,1.43-.16.51-.1,1.01-.28,1.49-.52l.27.7c-.44.33-.95.6-1.53.8-.58.2-1.2.31-1.85.31m-.07-11.19l-1.15-.93.93-1.11,1.15.91-.93,1.13Zm2.74,0l-1.15-.93.93-1.11,1.15.91-.93,1.13Zm3.94,13.07c-1.33,0-2.3-.34-2.91-1.01-.61-.67-.92-1.72-.92-3.16v-7.04h1v6.91c0,1.15.23,1.96.69,2.45.46.48,1.25.73,2.37.73h.04s.08.03.09.09c.01.06.02.13.02.2,0,.11-.01.23-.03.36-.02.14-.05.25-.09.34-.04.09-.08.14-.12.14h-.14Z"/>
    <path class="cls-1" d="m11.53,76.72s-.08-.03-.09-.09c-.01-.06-.02-.13-.02-.2,0-.12.01-.25.03-.37.02-.13.05-.24.09-.33.04-.09.08-.13.12-.13.03,0,.06.03.08.09.02.06.03.13.03.2,0,.11-.01.23-.03.36s-.05.25-.09.34c-.04.09-.08.14-.12.14m0,0l.14-1.13h4.15s.07.03.09.09c.01.06.02.13.02.2,0,.11-.01.23-.03.36s-.05.25-.09.34c-.04.09-.08.14-.12.14h-4.14Z"/>
    <path class="cls-1" d="m15.67,76.72s-.08-.03-.09-.09c-.02-.06-.02-.13-.02-.2,0-.12.01-.25.03-.37.02-.13.05-.24.09-.33.04-.09.08-.13.12-.13.03,0,.06.03.08.09.02.06.03.13.03.2,0,.11-.01.23-.03.36-.02.14-.05.25-.09.34-.04.09-.08.14-.12.14m0,0l.14-1.13h4.15s.07.03.09.09c.01.06.02.13.02.2,0,.11-.01.23-.03.36-.02.14-.05.25-.09.34-.04.09-.08.14-.12.14h-4.14Z"/>
    <path class="cls-1" d="m19.82,76.72s-.07-.03-.09-.09c-.01-.06-.02-.13-.02-.2,0-.12.01-.25.03-.37.02-.13.05-.24.09-.33.04-.09.08-.14.12-.14.03,0,.06.03.08.09.02.06.03.13.03.2,0,.1-.01.23-.03.36s-.05.25-.09.34c-.04.09-.08.14-.12.14m7.54-1.13s.08.03.09.09c.01.06.02.13.02.2,0,.1-.01.23-.03.36-.02.14-.05.25-.09.34-.04.09-.08.14-.12.14-.97,0-1.75-.15-2.34-.45-.6-.3-1.03-.76-1.3-1.38-.38.56-.88,1.01-1.49,1.34-.62.33-1.38.5-2.27.5l.14-1.13c.71,0,1.35-.15,1.94-.46.58-.31,1.04-.72,1.37-1.23-.03-.2-.05-.4-.07-.6-.02-.2-.02-.41-.02-.62v-2.7h1v2.63c0,1.1.24,1.88.73,2.32.48.45,1.31.67,2.47.67m-4.91,4.98l-1.15-.93.93-1.11,1.15.91-.93,1.13Zm2.74,0l-1.16-.93.93-1.11,1.16.91-.93,1.13Z"/>
    <path class="cls-1" d="m27.22,76.72s-.07-.03-.09-.09c-.01-.06-.02-.13-.02-.2,0-.12.01-.25.03-.37.02-.13.05-.24.09-.33.04-.09.08-.14.12-.14s.07.03.09.09c.01.06.02.13.02.2,0,.11-.01.23-.03.36-.02.14-.05.25-.09.34-.04.09-.08.14-.12.14m0,0l.14-1.13h.59c.5,0,.97-.01,1.43-.03.45-.02.89-.06,1.31-.12.42-.06.85-.16,1.27-.29.95-.35,1.72-.83,2.31-1.45.59-.62.94-1.34,1.04-2.17-.12-.76-.42-1.33-.89-1.73-.48-.4-1.11-.6-1.91-.6-.86,0-1.52.21-1.98.63-.46.42-.69.99-.69,1.7,0,.53.14,1.03.41,1.49.27.47.66.89,1.18,1.26.51.37,1.13.68,1.86.94.44.09.87.16,1.29.21.42.05.85.09,1.29.12.44.03.89.05,1.36.05h.32s.07.03.09.09c.01.06.02.13.02.2,0,.11-.01.23-.03.36-.02.14-.05.25-.09.34-.04.09-.08.14-.12.14h-.27c-1.27,0-2.41-.13-3.43-.38-1.02-.26-1.89-.62-2.62-1.1-.72-.48-1.28-1.04-1.66-1.7-.38-.66-.58-1.38-.58-2.16,0-.66.15-1.24.46-1.74.31-.5.74-.89,1.29-1.17.55-.28,1.19-.42,1.91-.42s1.36.14,1.91.42c.55.28.98.67,1.28,1.17.3.5.45,1.08.45,1.74,0,.79-.19,1.51-.57,2.16-.38.66-.93,1.22-1.64,1.7-.72.48-1.6.84-2.64,1.1-1.04.26-2.23.38-3.58.38h-.5Zm5.37-10.53l-1.13-.93.93-1.11,1.13.91-.93,1.13Z"/>
    <path class="cls-1" d="m37.39,76.72s-.08-.03-.09-.09c-.01-.06-.02-.13-.02-.2,0-.12.01-.24.03-.37.02-.13.05-.24.09-.33.04-.09.08-.13.12-.13.05,0,.08.03.09.09.02.06.02.13.02.2,0,.11-.01.23-.03.36-.02.14-.05.25-.09.34-.04.09-.08.14-.12.14m0,0l.14-1.13h3.42c1.27,0,2.28-.13,3.05-.4.76-.26,1.31-.66,1.64-1.19l.04-2.31.95-.18c0,.74-.03,1.34-.08,1.81-.05.47-.13.85-.24,1.14-.11.29-.24.55-.41.76-.24.35-.79.68-1.65,1.01-.86.32-2.01.49-3.44.49h-3.42Zm5.44-3.96c-.86,0-1.59-.14-2.2-.42-.6-.28-1.06-.69-1.38-1.22-.32-.54-.48-1.19-.48-1.96,0-.91.18-1.71.54-2.42.36-.71.83-1.27,1.39-1.69.57-.42,1.15-.62,1.76-.62.78,0,1.49.25,2.12.76.63.51,1.12,1.28,1.49,2.33.37,1.05.55,2.38.55,4l-1,.18c0-1.3-.14-2.4-.42-3.32-.28-.91-.66-1.61-1.13-2.1-.47-.48-1.01-.72-1.62-.72-.48,0-.93.16-1.34.49-.41.32-.74.75-.99,1.27-.25.52-.37,1.09-.37,1.71,0,.88.27,1.53.82,1.96.54.43,1.37.65,2.47.65.54,0,1.02-.03,1.44-.08.41-.05.81-.13,1.19-.24l.23.93c-.44.17-.89.29-1.35.38-.46.09-1.04.14-1.73.14m-1.63-10.19l-1.15-.93.93-1.11,1.16.91-.93,1.13Zm2.74,0l-1.16-.93.93-1.11,1.16.91-.93,1.13Z"/>
    <path class="cls-1" d="m52.47,80.97c-.53,0-1.02-.04-1.48-.12-.46-.08-.91-.2-1.35-.35l.25-1.02c.41.11.82.19,1.24.26.42.07.87.1,1.34.1.78,0,1.49-.19,2.13-.57.64-.38,1.14-.88,1.51-1.52.37-.63.55-1.34.55-2.13l.93-.16c0,1.09-.21,2.04-.65,2.86-.43.82-1.03,1.47-1.8,1.94-.77.47-1.66.7-2.67.7m1.31-4.26c-.86,0-1.59-.14-2.2-.42-.6-.28-1.06-.69-1.38-1.22-.32-.54-.48-1.19-.48-1.96,0-.91.18-1.71.54-2.42.36-.71.83-1.27,1.39-1.69.57-.42,1.15-.62,1.75-.62.78,0,1.49.25,2.12.76.63.51,1.12,1.28,1.49,2.33.37,1.05.55,2.38.55,4l-1,.18c0-1.3-.14-2.4-.42-3.32-.28-.91-.66-1.61-1.13-2.09-.47-.48-1.01-.73-1.62-.73-.48,0-.93.16-1.34.49-.41.32-.74.75-.99,1.27-.25.52-.37,1.09-.37,1.71,0,.88.27,1.53.82,1.96.54.43,1.37.65,2.47.65.54,0,1.02-.03,1.44-.08.41-.05.81-.13,1.19-.24l.23.93c-.44.17-.89.29-1.35.39-.46.09-1.04.14-1.73.14"/>
    <path class="cls-1" d="m67.81,74.84c-.69,0-1.31-.12-1.83-.37-.53-.25-.94-.6-1.23-1.04-.3-.44-.44-.96-.44-1.53,0-.48.1-.97.29-1.45.2-.48.54-.95,1.02-1.4.48-.45,1.15-.87,2.01-1.25.85-.38,1.93-.69,3.23-.95l.18,1.13c-1.18.15-2.14.37-2.89.64-.75.28-1.33.6-1.74.95-.41.35-.7.72-.86,1.09-.16.37-.24.71-.24,1.03,0,.63.24,1.13.71,1.48.48.35,1.14.53,1.98.53.44,0,.91-.05,1.43-.16.51-.1,1.01-.28,1.49-.52l.27.7c-.44.33-.95.6-1.53.8-.58.2-1.2.31-1.85.31m-.07-11.19l-1.15-.93.93-1.11,1.15.91-.93,1.13Zm2.74,0l-1.15-.93.93-1.11,1.15.91-.93,1.13Zm3.94,13.07c-1.33,0-2.3-.34-2.91-1.01-.61-.67-.92-1.72-.92-3.16v-7.04h1v6.91c0,1.15.23,1.96.69,2.45.46.48,1.25.73,2.37.73h.04s.08.03.09.09c.01.06.02.13.02.2,0,.11-.01.23-.03.36-.02.14-.05.25-.09.34-.04.09-.08.14-.12.14h-.14Z"/>
    <path class="cls-1" d="m74.56,76.72s-.08-.03-.09-.09c-.01-.06-.02-.13-.02-.2,0-.12.01-.25.03-.37.02-.13.05-.24.09-.33.04-.09.08-.13.12-.13.03,0,.06.03.08.09.02.06.03.13.03.2,0,.11-.01.23-.03.36s-.05.25-.09.34c-.04.09-.08.14-.12.14m0,0l.14-1.13h4.15s.07.03.09.09c.01.06.02.13.02.2,0,.11-.01.23-.03.36-.02.14-.05.25-.09.34-.04.09-.08.14-.12.14h-4.14Z"/>
    <path class="cls-1" d="m78.7,76.72s-.08-.03-.09-.09c-.01-.06-.02-.13-.02-.2,0-.12.01-.25.03-.37.02-.13.05-.24.09-.33.04-.09.08-.13.12-.13.03,0,.06.03.08.09.02.06.03.13.03.2,0,.11-.01.23-.03.36-.02.14-.05.25-.09.34-.04.09-.08.14-.12.14m0,0l.14-1.13h4.14s.08.03.09.09c.01.06.02.13.02.2,0,.11-.01.23-.03.36s-.05.25-.09.34c-.04.09-.08.14-.12.14h-4.14Z"/>
    <path class="cls-1" d="m82.85,76.72s-.08-.03-.09-.09c-.01-.06-.02-.13-.02-.2,0-.12.01-.25.03-.37.02-.13.05-.24.09-.33.04-.09.08-.14.12-.14.03,0,.06.03.08.09.02.06.03.13.03.2,0,.1-.01.23-.03.36-.02.14-.05.25-.09.34-.04.09-.08.14-.12.14m7.54-1.13s.08.03.09.09c.02.06.02.13.02.2,0,.1-.01.23-.03.36-.02.14-.05.25-.09.34-.04.09-.08.14-.12.14-.97,0-1.75-.15-2.34-.45-.6-.3-1.03-.76-1.3-1.38-.38.56-.88,1.01-1.5,1.34-.62.33-1.37.5-2.26.5l.13-1.13c.71,0,1.36-.15,1.94-.46.58-.31,1.04-.72,1.37-1.23-.03-.2-.05-.4-.07-.6-.02-.2-.02-.41-.02-.62v-2.7h1v2.63c0,1.1.24,1.88.73,2.32.48.45,1.3.67,2.47.67m-4.92,4.98l-1.15-.93.93-1.11,1.16.91-.93,1.13Zm2.74,0l-1.16-.93.93-1.11,1.16.91-.93,1.13Z"/>
    <path class="cls-1" d="m90.25,76.72s-.08-.03-.09-.09c-.01-.06-.02-.13-.02-.2,0-.12.01-.25.03-.37.02-.13.05-.24.09-.33.04-.09.08-.13.12-.13s.08.03.09.09c.01.06.02.13.02.2,0,.11-.01.23-.03.36-.02.14-.05.25-.09.34-.04.09-.08.14-.12.14m0,0l.14-1.13c1.04,0,1.89-.13,2.54-.4.65-.26,1.14-.66,1.47-1.19v-13.25h1v11.85c0,.56-.06,1.06-.18,1.49-.12.44-.3.82-.55,1.13-.18.26-.46.5-.85.73-.39.23-.87.41-1.46.55-.59.14-1.29.21-2.11.21"/>
    <path class="cls-1" d="m103.79,75.58s.08.03.09.09c.02.06.02.13.02.2,0,.11-.01.23-.04.36-.02.13-.05.25-.09.34-.04.09-.08.14-.12.14-1.39,0-2.43-.38-3.14-1.13-.7-.75-1.05-1.89-1.05-3.4v-11.44h1v11.39c0,1.22.26,2.1.78,2.64.52.54,1.37.8,2.55.8"/>
    <path class="cls-1" d="m103.66,76.72s-.08-.03-.09-.09c-.01-.06-.02-.13-.02-.2,0-.12.01-.25.03-.37.02-.13.05-.24.09-.33.04-.09.08-.14.12-.14s.08.03.09.09c.01.06.02.13.02.2,0,.11-.01.23-.03.36-.02.14-.05.25-.09.34-.04.09-.08.14-.12.14m7,.23c-.71,0-1.33-.14-1.86-.41-.53-.27-1.17-.71-1.93-1.31-.23.45-.56.82-1,1.09-.44.27-1.18.41-2.22.41l.14-1.13c.63,0,1.11-.05,1.41-.14.31-.09.58-.28.81-.57l.41-1.81c.35-1.57.85-2.74,1.52-3.52.66-.78,1.49-1.17,2.49-1.17.8,0,1.48.2,2.03.59.55.39.97.94,1.26,1.65.29.71.43,1.55.43,2.54,0,1.18-.29,2.1-.87,2.77-.58.67-1.45,1.01-2.61,1.01m0-1.13c.84,0,1.47-.22,1.88-.67.41-.44.61-1.15.61-2.12,0-1.1-.25-1.96-.74-2.58-.49-.62-1.18-.93-2.07-.93-.65,0-1.2.24-1.64.71-.45.48-.8,1.09-1.07,1.84-.26.75-.45,1.54-.55,2.39l-.14-.45c.76.7,1.41,1.17,1.96,1.43s1.14.38,1.76.38"/>
    <path class="cls-1" d="m124.36,74.84c-.69,0-1.31-.12-1.83-.37-.53-.25-.94-.6-1.23-1.04-.3-.44-.44-.96-.44-1.53,0-.48.1-.97.3-1.45.2-.48.54-.95,1.02-1.4.48-.45,1.15-.87,2.01-1.25.85-.38,1.93-.69,3.23-.95l.18,1.13c-1.18.15-2.14.37-2.89.64-.75.28-1.33.6-1.74.95-.41.35-.7.72-.86,1.09-.16.37-.24.71-.24,1.03,0,.63.24,1.13.71,1.48.48.35,1.14.53,1.98.53.44,0,.91-.05,1.43-.16.51-.1,1.01-.28,1.49-.52l.27.7c-.44.33-.95.6-1.53.8-.58.2-1.2.31-1.85.31m-.07-11.19l-1.15-.93.93-1.11,1.15.91-.93,1.13Zm2.74,0l-1.15-.93.93-1.11,1.15.91-.93,1.13Zm3.94,13.07c-1.33,0-2.3-.34-2.91-1.01-.61-.67-.92-1.72-.92-3.16v-7.04h1v6.91c0,1.15.23,1.96.69,2.45s1.25.73,2.37.73h.04s.08.03.09.09c.01.06.02.13.02.2,0,.11-.01.23-.03.36s-.05.25-.09.34c-.04.09-.08.14-.12.14h-.14Z"/>
    <path class="cls-1" d="m131.11,76.72s-.07-.03-.09-.09c-.02-.06-.02-.13-.02-.2,0-.12.01-.25.03-.37.02-.13.05-.24.09-.33.04-.09.08-.14.12-.14.03,0,.06.03.08.09.02.06.03.13.03.2,0,.1-.01.23-.03.36-.02.14-.05.25-.09.34-.04.09-.08.14-.12.14m7.54-1.13s.08.03.09.09c.02.06.02.13.02.2,0,.1-.01.23-.03.36-.02.14-.05.25-.09.34-.04.09-.08.14-.12.14-.97,0-1.75-.15-2.35-.45-.6-.3-1.03-.76-1.3-1.38-.38.56-.88,1.01-1.49,1.34-.62.33-1.38.5-2.27.5l.14-1.13c.71,0,1.36-.15,1.94-.46.58-.31,1.04-.72,1.37-1.23-.03-.2-.05-.4-.07-.6-.02-.2-.02-.41-.02-.62v-2.7h1v2.63c0,1.1.24,1.88.73,2.32.48.45,1.31.67,2.47.67m-4.91,4.98l-1.15-.93.93-1.11,1.15.91-.93,1.13Zm2.74,0l-1.16-.93.93-1.11,1.15.91-.93,1.13Z"/>
    <path class="cls-1" d="m138.51,76.72s-.08-.03-.09-.09c-.01-.06-.02-.13-.02-.2,0-.12.01-.25.03-.37.02-.13.05-.24.09-.33.04-.09.08-.14.12-.14.03,0,.06.03.08.09.02.06.03.13.03.2,0,.11-.01.23-.03.36-.02.13-.05.25-.09.34-.04.09-.08.14-.12.14m7.54-1.13s.08.03.09.09c.02.06.02.13.02.2,0,.11-.01.23-.03.36-.02.13-.05.25-.09.34-.04.09-.08.14-.12.14-.97,0-1.75-.15-2.34-.45-.6-.3-1.03-.76-1.3-1.38-.38.56-.88,1-1.5,1.34-.62.33-1.37.5-2.26.5l.14-1.13c.71,0,1.36-.16,1.94-.46.58-.31,1.04-.72,1.37-1.24-.03-.2-.05-.4-.07-.6-.02-.2-.02-.41-.02-.62v-2.69h1v2.63c0,1.1.24,1.88.72,2.32.48.44,1.31.67,2.47.67m-3.78-7.47l-1.13-.93.93-1.11,1.13.91-.93,1.13Z"/>
    <path class="cls-1" d="m145.92,76.72s-.07-.03-.09-.09c-.01-.06-.02-.13-.02-.2,0-.12.01-.25.03-.37.02-.13.05-.24.09-.33.04-.09.08-.14.12-.14s.07.03.09.09c.01.06.02.13.02.2,0,.11-.01.23-.03.36-.02.14-.05.25-.09.34-.04.09-.08.14-.12.14m0,0l.14-1.13h.59c.5,0,.97-.01,1.43-.03.45-.02.89-.06,1.31-.12.42-.06.85-.16,1.27-.29.95-.35,1.72-.83,2.31-1.45.59-.62.94-1.34,1.04-2.17-.12-.76-.42-1.33-.89-1.73-.48-.4-1.11-.6-1.91-.6-.86,0-1.52.21-1.98.63-.46.42-.69.99-.69,1.7,0,.53.14,1.03.41,1.49.27.47.67.89,1.18,1.26s1.13.68,1.86.94c.44.09.87.16,1.29.21.42.05.85.09,1.29.12.44.03.89.05,1.36.05h.32s.08.03.09.09c.01.06.02.13.02.2,0,.11-.01.23-.04.36-.02.14-.05.25-.09.34-.04.09-.08.14-.12.14h-.27c-1.27,0-2.41-.13-3.43-.38-1.02-.26-1.89-.62-2.62-1.1-.73-.48-1.28-1.04-1.67-1.7-.39-.66-.58-1.38-.58-2.16,0-.66.15-1.24.46-1.74.31-.5.74-.89,1.29-1.17.55-.28,1.19-.42,1.91-.42s1.36.14,1.91.42c.55.28.98.67,1.28,1.17.3.5.45,1.08.45,1.74,0,.79-.19,1.51-.57,2.16-.38.66-.93,1.22-1.64,1.7-.72.48-1.6.84-2.64,1.1-1.04.26-2.24.38-3.58.38h-.5Zm4.01-10.53l-1.15-.93.93-1.11,1.15.91-.93,1.13Zm2.74,0l-1.16-.93.93-1.11,1.16.91-.93,1.13Z"/>
    <path class="cls-1" d="m156.09,76.72s-.08-.03-.09-.09c-.02-.06-.02-.13-.02-.2,0-.12.01-.24.03-.37.02-.13.05-.24.09-.33.04-.09.08-.14.12-.14s.08.03.09.09c.01.06.02.13.02.2,0,.1-.01.23-.03.36-.02.14-.05.25-.09.34-.04.09-.08.14-.12.14m0,0l.14-1.13c1.04,0,1.89-.13,2.55-.4.66-.26,1.15-.66,1.48-1.19,0-.39,0-.77-.02-1.13-.01-.36-.04-.75-.08-1.15s-.09-.88-.16-1.43c-.07-.54-.16-1.18-.28-1.93l.97-.18c.11.57.2,1.14.27,1.7.08.56.14,1.08.18,1.55.05.48.07.87.07,1.17,0,.56-.06,1.06-.17,1.5-.11.44-.29.82-.53,1.13-.18.26-.46.5-.85.73-.38.23-.87.41-1.46.56-.59.14-1.29.21-2.11.21m2.74-10.33l-1.15-.93.93-1.11,1.15.9-.93,1.13Zm2.74,0l-1.16-.93.93-1.11,1.16.9-.93,1.13Z"/>
    <path class="cls-1" d="m171.94,74.84c-.69,0-1.31-.12-1.83-.37-.53-.25-.94-.6-1.23-1.04-.3-.44-.44-.96-.44-1.53,0-.48.1-.97.29-1.45.2-.48.54-.95,1.02-1.4.48-.45,1.15-.87,2.01-1.25.85-.38,1.93-.69,3.23-.95l.18,1.13c-1.18.15-2.14.37-2.89.64-.75.28-1.33.6-1.74.95-.42.35-.7.72-.86,1.09-.16.37-.24.71-.24,1.03,0,.63.24,1.13.71,1.48.48.35,1.14.53,1.98.53.44,0,.91-.05,1.43-.16.51-.1,1.01-.28,1.49-.52l.27.7c-.44.33-.95.6-1.53.8-.58.2-1.2.31-1.85.31m-.07-11.19l-1.15-.93.93-1.11,1.15.91-.93,1.13Zm2.74,0l-1.15-.93.93-1.11,1.15.91-.93,1.13Zm3.94,13.07c-1.33,0-2.3-.34-2.91-1.01-.61-.67-.92-1.72-.92-3.16v-7.04h1v6.91c0,1.15.23,1.96.69,2.45.46.48,1.25.73,2.37.73h.04s.08.03.09.09c.02.06.02.13.02.2,0,.11,0,.23-.03.36-.02.14-.05.25-.09.34-.04.09-.08.14-.12.14h-.14Z"/>
    <path class="cls-1" d="m178.69,76.72s-.07-.03-.09-.09c-.01-.06-.02-.13-.02-.2,0-.12.01-.25.03-.37.02-.13.05-.24.09-.33.04-.09.08-.14.12-.14s.08.03.09.09c.01.06.02.13.02.2,0,.11-.01.23-.03.36-.02.13-.05.25-.09.34-.04.09-.08.14-.12.14m9.56.23c-1.12,0-2.04-.05-2.79-.15-.74-.1-1.35-.24-1.83-.43-.48-.19-.88-.42-1.18-.69-.3-.27-.57-.58-.82-.93l.23-.11c-.11.41-.3.77-.57,1.09-.27.32-.63.56-1.06.74-.44.17-.95.26-1.54.26l.14-1.13c.89,0,1.55-.26,1.99-.79.44-.53.66-1.23.66-2.11v-2.04h1v3.62c.15.21.34.41.58.6.23.19.56.35.97.5.42.14.97.25,1.68.33.7.08,1.59.11,2.66.11,1.8,0,3.14-.19,4.03-.58.89-.38,1.41-.89,1.56-1.51-.15-1.3-.56-2.31-1.24-3.05-.67-.73-1.53-1.1-2.57-1.1-1.24,0-2.34.53-3.31,1.6-.97,1.06-1.69,2.63-2.18,4.7l-.86-.09c.54-2.42,1.37-4.24,2.49-5.46,1.12-1.22,2.46-1.83,4.03-1.83.86,0,1.62.22,2.29.66s1.19,1.04,1.57,1.81c.38.77.58,1.67.58,2.7,0,.63-.25,1.2-.75,1.7-.5.5-1.23.89-2.2,1.17-.97.28-2.16.42-3.58.42m8.49-1.36s.08.03.09.09c.01.06.02.13.02.2,0,.11-.01.23-.03.36-.02.13-.05.25-.09.34-.04.09-.08.14-.12.14-.58,0-1.16-.09-1.77-.28-.6-.19-1.14-.43-1.61-.71l.79-.7c.39.21.82.36,1.28.44.46.08.94.12,1.44.12"/>
    <path class="cls-1" d="m196.6,76.72s-.08-.03-.09-.09c-.01-.06-.02-.13-.02-.2,0-.12.01-.25.03-.37.02-.13.05-.24.09-.33.04-.09.08-.14.12-.14.03,0,.06.03.08.09.02.06.03.13.03.2,0,.11-.01.23-.03.36-.02.13-.05.25-.09.34-.04.09-.08.14-.12.14m7.54-1.13s.08.03.09.09c.02.06.02.13.02.2,0,.11-.01.23-.03.36-.02.13-.05.25-.09.34-.04.09-.08.14-.12.14-.97,0-1.75-.15-2.34-.45-.6-.3-1.03-.76-1.3-1.38-.38.56-.88,1-1.5,1.34-.62.33-1.37.5-2.26.5l.14-1.13c.71,0,1.36-.16,1.94-.46.58-.31,1.04-.72,1.37-1.24-.03-.2-.05-.4-.07-.6-.02-.2-.02-.41-.02-.62v-2.69h1v2.63c0,1.1.24,1.88.72,2.32.48.44,1.31.67,2.47.67m-3.78-7.47l-1.13-.93.93-1.11,1.13.91-.93,1.13Z"/>
    <path class="cls-1" d="m204.01,76.72s-.08-.03-.09-.09c-.01-.06-.02-.13-.02-.2,0-.12.01-.25.03-.37.02-.13.05-.24.09-.33.04-.09.08-.14.12-.14s.08.03.09.09c.02.06.02.13.02.2,0,.11-.01.23-.03.36-.02.14-.05.25-.09.34-.04.09-.08.14-.12.14m7,.23c-.71,0-1.33-.14-1.86-.41-.53-.27-1.17-.71-1.93-1.31-.23.45-.56.82-1,1.09-.44.27-1.18.41-2.22.41l.14-1.13c.63,0,1.11-.05,1.42-.14.31-.09.58-.28.8-.57l.41-1.81c.35-1.57.85-2.74,1.52-3.52.67-.78,1.49-1.17,2.49-1.17.8,0,1.48.2,2.03.59.55.39.97.94,1.26,1.65.29.71.43,1.55.43,2.54,0,1.18-.29,2.1-.87,2.77-.58.67-1.45,1.01-2.62,1.01m0-1.13c.84,0,1.47-.22,1.88-.67.41-.44.61-1.15.61-2.12,0-1.1-.25-1.96-.74-2.58-.49-.62-1.18-.93-2.07-.93-.65,0-1.2.24-1.64.71-.45.48-.8,1.09-1.07,1.84-.26.75-.45,1.54-.55,2.39l-.14-.45c.75.7,1.41,1.17,1.96,1.43.55.26,1.14.38,1.76.38"/>
  </g>
</svg>